# xmcd
#
# Track frame offsets: 
#        150
#        85362
#        164712
#        245742
#
# Disc length: 4113 seconds
#
# Revision: 0
# Processed by: cddbd v1.5.2PL0 Copyright (c) Steve Scherf et al.
# Submitted via: ExactAudioCopy v1.0b3
#
DISCID=33100f04
DTITLE=徐栁仙 - 徐栁仙-纪念专辑
DYEAR=1900
DGENRE=
TTITLE0=再拆長亭柳
TTITLE1=一曲難忘
TTITLE2=絕代佳人
TTITLE3=情深恨更深
EXTD=
EXTT0=
EXTT1=
EXTT2=
EXTT3=
PLAYORDER=
